<svg xmlns="http://www.w3.org/2000/svg" viewBox="0 0 64 64"><title>29-dog house</title><g id="_29-dog_house" data-name="29-dog house"><path d="M58,26.5V63H47V47a15,15,0,0,0-30,0V63H6V26.5L32,7Z" style="fill:#fecfd5"/><polygon points="58 26.5 32 7 6 26.5 4 28 1 25 32 1 63 25 60 28 58 26.5" style="fill:#31c0e5"/><path d="M47,47V63H17V47a15,15,0,0,1,30,0Z" style="fill:#e9edf5"/><polygon points="32 7 6 26.5 6 32.5 32 13 58 32.5 58 26.5 32 7" style="fill:#f3afba"/><polygon points="6 26.5 32 7 58 26.5 60 28 61.309 26.691 32 4 2.691 26.691 4 28 6 26.5" style="fill:#2b8ffc"/><path d="M32,32A15.005,15.005,0,0,0,17,47v6a15,15,0,0,1,30,0V47A15.005,15.005,0,0,0,32,32Z" style="fill:#cdd2e1"/><path d="M38,24.833C38,27.6,35.314,29,32,29s-6-1.405-6-4.167A6.239,6.239,0,0,1,32,19,6.239,6.239,0,0,1,38,24.833Z" style="fill:#ffc9bd"/><circle cx="35" cy="15" r="2" style="fill:#ffb4a3"/><circle cx="29" cy="15" r="2" style="fill:#ffb4a3"/><circle cx="40" cy="19" r="2" style="fill:#ffb4a3"/><circle cx="24" cy="19" r="2" style="fill:#ffb4a3"/><path d="M34,22a2,2,0,0,0-4,0,2,2,0,0,0-2,2,4,4,0,0,0,8,0A2,2,0,0,0,34,22Z" style="fill:#faa592"/><path d="M40,20a2,2,0,0,1-1.929-1.5A1.966,1.966,0,0,0,38,19a2,2,0,0,0,4,0,1.966,1.966,0,0,0-.071-.5A2,2,0,0,1,40,20Z" style="fill:#faa592"/><path d="M35,16a2,2,0,0,1-1.929-1.5A1.966,1.966,0,0,0,33,15a2,2,0,0,0,4,0,1.966,1.966,0,0,0-.071-.5A2,2,0,0,1,35,16Z" style="fill:#faa592"/><path d="M29,16a2,2,0,0,1-1.929-1.5A1.966,1.966,0,0,0,27,15a2,2,0,0,0,4,0,1.966,1.966,0,0,0-.071-.5A2,2,0,0,1,29,16Z" style="fill:#faa592"/><path d="M24,20a2,2,0,0,1-1.929-1.5A1.966,1.966,0,0,0,22,19a2,2,0,0,0,4,0,1.966,1.966,0,0,0-.071-.5A2,2,0,0,1,24,20Z" style="fill:#faa592"/><path d="M30,23a2,2,0,0,1,4,0,2,2,0,0,1,1.945,1.549A3.973,3.973,0,0,0,36,24a2,2,0,0,0-2-2,2,2,0,0,0-4,0,2,2,0,0,0-2,2,3.973,3.973,0,0,0,.055.549A2,2,0,0,1,30,23Z" style="fill:#ffb4a3"/><ellipse cx="33.682" cy="24.708" rx="0.825" ry="1.148" transform="translate(-7.604 31.067) rotate(-45.02)" style="fill:#f6fafd"/><ellipse cx="53.684" cy="35.695" rx="1.642" ry="2.286" transform="translate(-9.512 48.437) rotate(-45.02)" style="fill:#f6fafd"/><ellipse cx="54.682" cy="39.708" rx="0.825" ry="1.148" transform="translate(-12.058 50.319) rotate(-45.02)" style="fill:#f6fafd"/><rect x="5" y="31" width="2" height="2"/><path d="M57,62H48V47a16,16,0,0,0-32,0V62H7V35H5V63a1,1,0,0,0,1,1H58a1,1,0,0,0,1-1V30H57ZM46,62H18V47a14,14,0,0,1,28,0Z"/><path d="M63.612,24.209l-3.871-3-1.224,1.582,2.973,2.3L59.906,26.68,32.6,6.2a1,1,0,0,0-1.2,0L4.094,26.68,2.51,25.1,32,2.265,57.222,21.791l1.224-1.582L32.612.209a1,1,0,0,0-1.224,0l-31,24a1,1,0,0,0-.1,1.5l3,3A1,1,0,0,0,4.6,28.8L32,8.25,59.4,28.8a1,1,0,0,0,1.307-.093l3-3a1,1,0,0,0-.095-1.5Z"/><path d="M32,18a7.193,7.193,0,0,0-7,6.833C25,27.972,27.748,30,32,30s7-2.028,7-5.167A7.193,7.193,0,0,0,32,18Zm0,10c-2.417,0-5-.832-5-3.167A5.254,5.254,0,0,1,32,20a5.254,5.254,0,0,1,5,4.833C37,27.168,34.417,28,32,28Z"/><path d="M35,12a3,3,0,1,0,3,3A3,3,0,0,0,35,12Zm0,4a1,1,0,1,1,1-1A1,1,0,0,1,35,16Z"/><path d="M29,12a3,3,0,1,0,3,3A3,3,0,0,0,29,12Zm0,4a1,1,0,1,1,1-1A1,1,0,0,1,29,16Z"/><path d="M43,19a3,3,0,1,0-3,3A3,3,0,0,0,43,19Zm-4,0a1,1,0,1,1,1,1A1,1,0,0,1,39,19Z"/><path d="M21,19a3,3,0,1,0,3-3A3,3,0,0,0,21,19Zm4,0a1,1,0,1,1-1-1A1,1,0,0,1,25,19Z"/></g></svg>